<?xml version="1.0"?>
<svg xmlns:rdf="http://www.w3.org/1999/02/22-rdf-syntax-ns#" xmlns="http://www.w3.org/2000/svg" xmlns:cc="http://web.resource.org/cc/" xmlns:dc="http://purl.org/dc/elements/1.1/" xmlns:svg="http://www.w3.org/2000/svg" id="svg2" viewBox="0 0 200 200" version="1.0">
  <g id="layer1" transform="translate(-211.88 -270.59)">
    <g id="g25056" stroke="#000">
      <rect id="rect1336" stroke-linejoin="round" ry="0" rx="0" transform="matrix(.70742 -.70679 .70679 .70742 0 0)" height="138.1" width="138.09" y="413.54" x="-110.35" stroke-width="4.7022" fill="#ff0"/>
      <g id="g7457" transform="matrix(.44444 0 0 .44444 156.05 236.16)">
        <path id="path2224" d="m323.64 396.82h134.93c-7.12-19.07-15.71-5.79-25.34-16.79-1.74-21.77-17.36-23.06-17.36-23.06-15.94-14.23-13.36-11.28-21.06-11.39-20.5-0.28-19.88 26.8-36.72 26.19-16.8-0.57-13.1 16.51-34.45 25.05z" stroke-width="1px" fill-rule="evenodd"/>
        <path id="path3113" d="m253.9 386l11.11-48.1 1.28-41.06" stroke-width="22" stroke-linecap="round" fill="none"/>
        <path id="path3988" d="m291.76 386l23.06-48.1-23.06-37.29-13.38-9.39" stroke-width="22" stroke-linecap="round" fill="none"/>
        <path id="path4875" d="m259.6 288.65l53.94-58.06s1.49-1.85 6.97-1.85l28.18 33.16-50.1 31.31-38.99-4.56z" stroke-width="1px" fill-rule="evenodd"/>
        <path id="path5758" d="m315.25 232.51l-34.87 0.35-14.59 31.24" stroke-width="14" stroke-linecap="round" fill="none"/>
        <path id="path6637" d="m318.31 305.45l25.26-39.55" stroke-width="14" stroke-linecap="round" fill="none"/>
        <path id="path1334" d="m258.39 252.5l118.48 109.88v0" stroke-width="6" stroke-linecap="round" fill="none"/>
        <path id="path3082" stroke-linejoin="round" d="m385.7 216.35a17.079 17.079 0 1 1 -34.16 0 17.079 17.079 0 1 1 34.16 0z" transform="translate(-14.517 11.671)" stroke-linecap="round" stroke-width="6"/>
      </g>
    </g>
  </g>
</svg>
